<?xml version="1.0" encoding="iso-8859-1"?>
<!-- Generator: Adobe Illustrator 16.0.0, SVG Export Plug-In . SVG Version: 6.00 Build 0)  -->
<!DOCTYPE svg PUBLIC "-//W3C//DTD SVG 1.1//EN" "http://www.w3.org/Graphics/SVG/1.1/DTD/svg11.dtd">
<svg version="1.1" id="Capa_1" xmlns="http://www.w3.org/2000/svg" xmlns:xlink="http://www.w3.org/1999/xlink" x="0px" y="0px"
	 width="673.996px" height="673.996px" viewBox="0 0 673.996 673.996" style="enable-background:new 0 0 673.996 673.996;"  fill="#4A4A66"
	 xml:space="preserve">
<g>
	<g>
		<path d="M67.718,214.2h24.48v-91.8h-24.48c0,0-36.72,0-36.72,45.9S67.718,214.2,67.718,214.2z"/>
		<path d="M67.718,336.6h24.48V244.8h-24.48c0,0-36.72,0-36.72,45.9C30.998,336.6,67.718,336.6,67.718,336.6z"/>
		<path d="M67.718,489.601h24.48V397.8h-24.48c0,0-36.72,0-36.72,45.9S67.718,489.601,67.718,489.601z"/>
		<polygon points="581.798,673.2 581.798,612 642.998,612 642.998,550.8 581.798,550.8 581.798,489.601 520.598,489.601 
			520.598,550.8 459.398,550.8 459.398,612 520.598,612 520.598,673.2 		"/>
		<path d="M642.998,0h-489.6v28.703h461.631v448.26c10.466,6.395,19.891,14.351,27.969,23.5V0z"/>
		<path d="M122.798,75.123v584.124c0,7.711,6.182,13.953,14.137,13.953h291.527l42.687,0.796
			c-25.949-22.461-42.351-55.601-42.351-92.596c0-67.596,54.805-122.4,122.4-122.4c10.526,0,20.777,1.347,30.538,3.825l0.062-5.63
			V75.123c0-7.681-6.181-13.923-14.137-13.923H136.935C129.132,61.2,122.798,67.442,122.798,75.123z"/>
		<path d="M67.718,612h24.48v-91.8h-24.48c0,0-36.72,0-36.72,45.9C30.998,612,67.718,612,67.718,612z"/>
	</g>
</g>
<g>
</g>
<g>
</g>
<g>
</g>
<g>
</g>
<g>
</g>
<g>
</g>
<g>
</g>
<g>
</g>
<g>
</g>
<g>
</g>
<g>
</g>
<g>
</g>
<g>
</g>
<g>
</g>
<g>
</g>
</svg>
